# xmcd
#
# Track frame offsets: 
#        150
#        16718
#        34486
#        53647
#        70662
#        87337
#        102807
#        121892
#        136492
#        150615
#        167775
#        181327
#        195364
#        210284
#        224459
#        239050
#        255922
#        270406
#
# Disc length: 3835 seconds
#
# Revision: 0
# Processed by: cddbd v1.5.2PL0 Copyright (c) Steve Scherf et al.
# Submitted via: ExactAudioCopyFreeDBPlugin 1.0
#
DISCID=ee0ef912
DTITLE=Various Artist - Country Hits 2015
DYEAR=2015
DGENRE=Country
TTITLE0=Florida Georgia Line - This Is How We Roll
TTITLE1=Keith Urban - Somewhere In My Car
TTITLE2=Tim McGraw - Southern Girl
TTITLE3=Luke Bryan - Play It Again
TTITLE4=Brantley Gilbert - Bottoms Up
TTITLE5=Rascal Flatts - Rewind
TTITLE6=Dierks Bentley - Drunk On A Plane
TTITLE7=Sam Hunt - Leave The Night On
TTITLE8=Thomas Rhett - Get Me Some Of That
TTITLE9=Jess Moskaluke - Used
TTITLE10=The Road Hammers - Mud
TTITLE11=Tim Hicks - Here Comes The Thunder
TTITLE12=Eli Young Band - Dust
TTITLE13=Chad Brownlee - When The Lights Go Down
TTITLE14=Dallas Smith - A Girl Like You
TTITLE15=Eric Paslay - Song About A Girl
TTITLE16=Bobby Wills - Never Didn't Love You
TTITLE17=David Nail - Kiss You Tonight
EXTD=
EXTT0=
EXTT1=
EXTT2=
EXTT3=
EXTT4=
EXTT5=
EXTT6=
EXTT7=
EXTT8=
EXTT9=
EXTT10=
EXTT11=
EXTT12=
EXTT13=
EXTT14=
EXTT15=
EXTT16=
EXTT17=
PLAYORDER=
